<?xml version="1.0" standalone="no"?>
<!DOCTYPE svg PUBLIC "-//W3C//DTD SVG 1.0//EN" "http://www.w3.org/TR/2001/REC-SVG-20010904/DTD/svg10.dtd">
<svg xmlns="http://www.w3.org/2000/svg" xmlns:xlink="http://www.w3.org/1999/xlink" id="body_1" width="768" height="480">

<g transform="matrix(1 0 0 1 0 0)">
    <path transform="matrix(1 0 0 1 397.25 31.9375)"  d="M0 0C 0.87172854 0.39533937 1.7434571 0.79067874 2.6416016 1.197998C 10.220993 4.696653 17.497362 8.647935 24.734375 12.800781C 27.299948 14.271923 29.881147 15.630444 32.546875 16.910156C 38.01826 19.606232 43.109863 22.915892 48.25 26.1875C 49.263203 26.820429 50.276405 27.45336 51.320312 28.105469C 52.2768 28.712618 53.23328 29.319765 54.21875 29.945312C 55.08951 30.495903 55.960274 31.046494 56.85742 31.61377C 57.48197 32.09185 58.10652 32.56993 58.75 33.0625C 58.75 33.7225 58.75 34.3825 58.75 35.0625C 59.31461 35.33836 59.87922 35.61422 60.460938 35.898438C 68.483246 39.978043 76.18831 44.863792 82.75 51.0625C 82.75 51.7225 82.75 52.3825 82.75 53.0625C 83.30172 53.306133 83.85344 53.549767 84.421875 53.80078C 89.35019 56.471664 93.47617 60.467247 97.75 64.0625C 98.4693 64.65547 99.18859 65.248436 99.92969 65.859375C 106.46056 71.36734 112.0907 77.72578 117.4375 84.375C 119.720566 87.17757 119.720566 87.17757 122.75 89.5625C 126.60361 92.77384 129.59805 96.108635 132.16406 100.46094C 133.7536 103.0684 135.49628 105.33283 137.4375 107.6875C 144.71863 116.68183 151.40965 125.95905 156.99219 136.10156C 158.92297 139.59001 160.88583 143.05789 162.8711 146.51562C 177.22983 171.57169 177.22983 171.57169 180.96094 183.66406C 182.3642 187.92943 184.09203 192.07532 185.76172 196.24219C 186.75 199.0625 186.75 199.0625 186.75 202.0625C 198.63 202.0625 210.51 202.0625 222.75 202.0625C 221.50348 207.67186 220.28377 212.8436 218.55078 218.25781C 218.14194 219.5636 217.73375 220.8696 217.32617 222.17578C 216.69408 224.18991 216.05772 226.20229 215.40991 228.21143C 214.77695 230.18132 214.16258 232.15627 213.55078 234.13281C 213.18123 235.29572 212.81166 236.4586 212.43091 237.65674C 211.15143 244.0564 213.11174 249.76884 215.03516 255.85938C 215.2557 256.57483 215.47624 257.29028 215.70348 258.0274C 216.4015 260.29068 217.1063 262.55176 217.8125 264.8125C 218.52188 267.08762 219.22966 269.3632 219.93224 271.64044C 220.36775 273.05182 220.80719 274.462 221.25099 275.8708C 222.13158 278.72232 222.75 281.05768 222.75 284.0625C 216.81 284.0625 210.87 284.0625 204.75 284.0625C 205.08 285.0525 205.41 286.0425 205.75 287.0625C 207.27936 298.3164 206.93616 309.82526 206.9353 321.1543C 206.93748 324.4233 206.9557 327.692 206.97461 330.96094C 207.00366 342.16806 206.72168 353.00992 204.75 364.0625C 204.09 364.0625 203.43 364.0625 202.75 364.0625C 202.75 364.7225 202.75 365.3825 202.75 366.0625C 199.73157 367.6712 196.70984 369.27362 193.6875 370.875C 192.83994 371.3268 191.99239 371.77863 191.11914 372.24414C 190.28447 372.68564 189.4498 373.12714 188.58984 373.58203C 187.8305 373.98526 187.07117 374.3885 186.28882 374.80396C 183.16093 376.35452 179.96315 377.6979 176.75 379.0625C 174.46956 380.0921 172.1923 381.12885 169.91797 382.17188C 145.25317 393.4451 145.25317 393.4451 135.4375 397.3125C 134.45656 397.70648 134.45656 397.70648 133.45581 398.1084C 129.12503 399.76495 124.81747 400.69138 120.26538 401.54395C 116.31756 402.3578 112.52519 403.59262 108.6875 404.8125C 91.699394 410.0138 74.53023 413.95215 57 416.8125C 55.19245 417.11038 55.19245 417.11038 53.34839 417.4143C 32.98214 420.5993 12.8502655 421.43564 -7.75 421.375C -9.033695 421.37317 -10.3173895 421.37137 -11.639984 421.36948C -30.03822 421.32544 -48.050354 420.9511 -66.25 418.0625C -67.39888 417.8909 -68.54775 417.7193 -69.731445 417.54248C -92.603 414.09045 -115.91476 409.64142 -137.82812 402.10547C -140.55447 401.2745 -143.06833 400.71188 -145.85938 400.21875C -152.25613 398.98587 -158.18483 396.71237 -164.25 394.375C -164.86185 394.14105 -165.47368 393.90714 -166.10406 393.6661C -176.90315 389.5272 -187.53761 385.02597 -198.125 380.375C -198.82367 380.0697 -199.52234 379.7644 -200.24219 379.44986C -207.85265 376.11343 -215.34085 372.60208 -222.69531 368.73047C -223.6627 368.2257 -223.6627 368.2257 -224.64963 367.71075C -229.12788 365.30673 -229.12788 365.30673 -230.25 363.0625C -231.27419 354.54016 -231.39893 345.97504 -231.38281 337.40234C -231.38425 335.67474 -231.38425 335.67474 -231.38571 333.91223C -231.38638 331.49805 -231.38458 329.08386 -231.38037 326.66968C -231.37502 323.00565 -231.38034 319.34177 -231.38672 315.67773C -231.38606 313.3151 -231.38478 310.95248 -231.38281 308.58984C -231.38484 307.51138 -231.38686 306.43292 -231.38895 305.32175C -231.36728 298.18295 -230.91992 291.17053 -230.25 284.0625C -236.52 284.0625 -242.79 284.0625 -249.25 284.0625C -248.46124 279.32996 -247.40201 275.06223 -245.92969 270.53906C -245.47194 269.09137 -245.01494 267.64346 -244.5586 266.1953C -243.8438 263.93954 -243.1244 261.6857 -242.39209 259.43555C -241.68164 257.24524 -240.99176 255.04929 -240.30469 252.85156C -240.08392 252.18983 -239.86316 251.52812 -239.63571 250.84634C -237.34709 243.40503 -238.9497 237.38875 -241.28125 230.14844C -241.67957 228.89288 -242.0779 227.63734 -242.48828 226.34375C -242.90831 225.04149 -243.32889 223.73941 -243.75 222.4375C -244.57802 219.86354 -245.39958 217.28775 -246.21875 214.71094C -246.5842 213.57834 -246.94965 212.44574 -247.32617 211.27881C -248.25 208.0625 -248.25 208.0625 -249.25 202.0625C -237.37 202.0625 -225.49 202.0625 -213.25 202.0625C -212.92 200.4125 -212.59 198.7625 -212.25 197.0625C -211.51546 195.0282 -210.7412 193.008 -209.9375 191C -208.27307 186.7822 -206.76399 182.5848 -205.4375 178.25C -200.54326 163.3925 -191.83841 149.6612 -184.25 136.0625C -183.59 136.0625 -182.93 136.0625 -182.25 136.0625C -182.02313 135.06606 -181.79625 134.06961 -181.5625 133.04297C -180.27638 128.56744 -177.93246 125.13709 -175.25 121.375C -174.76378 120.679474 -174.27756 119.98394 -173.77661 119.267334C -169.93912 113.85207 -165.79596 108.78976 -161.47266 103.75391C -158.88232 100.61729 -156.68794 97.32784 -154.49219 93.91016C -152.97615 91.655174 -151.35118 89.788475 -149.25 88.0625C -148.59 88.0625 -147.93 88.0625 -147.25 88.0625C -147.027 87.51078 -146.80399 86.95906 -146.57422 86.390625C -144.83446 83.33193 -142.59236 81.25512 -140.0625 78.8125C -136.78163 75.61782 -133.6101 72.40589 -130.6875 68.875C -127.49551 65.1384 -123.877655 62.26489 -119.99609 59.26953C -116.90615 56.786148 -114.01974 54.142593 -111.125 51.4375C -105.1982 45.930958 -99.3654 41.178764 -92.25391 37.296875C -89.66879 35.704487 -87.33647 33.8611 -84.9375 32C -72.90945 22.870092 -59.818893 15.55226 -46.230957 9.027344C -44.190693 8.033614 -42.170414 7.006752 -40.152344 5.96875C -15.075825 -6.90951 -15.075825 -6.90951 0 0z" stroke="none" fill="#105174" fill-rule="nonzero" />
    <path transform="matrix(1 0 0 1 181 315)"  d="M0 0C 134.31 0 268.62 0 407 0C 409.30176 19.56506 409.30176 19.56506 409.23047 27.933594C 409.23 28.86245 409.22955 29.791304 409.22906 30.748306C 409.2261 32.676212 409.21838 34.604115 409.2058 36.531982C 409.18738 39.45826 409.1853 42.38422 409.18555 45.310547C 409.18063 47.20573 409.1748 49.100914 409.16797 50.996094C 409.16687 51.853596 409.16574 52.7111 409.1646 53.59459C 409.1455 56.065655 409.08636 58.5304 409 61C 408.97232 61.901478 408.9446 62.802956 408.9161 63.73175C 408.51816 70.41434 408.51816 70.41434 406.16528 73.07373C 404.96393 73.652115 404.96393 73.652115 403.73828 74.24219C 402.829 74.70206 401.91974 75.161934 400.9829 75.63574C 399.50638 76.31105 399.50638 76.31105 398 77C 397.01694 77.48888 396.03384 77.97775 395.021 78.481445C 391.7658 80.082664 388.48456 81.61191 385.1875 83.125C 384.58694 83.40113 383.98642 83.67726 383.36768 83.96176C 378.9237 86.00133 374.46613 88.00942 370 90C 369.08304 90.409164 369.08304 90.409164 368.14752 90.8266C 337.3531 104.52274 305.50735 112.52502 272.4546 118.55029C 270.08893 118.9837 267.72604 119.43004 265.36328 119.87891C 263.90897 120.14904 262.45456 120.4186 261 120.6875C 259.14374 121.033615 259.14374 121.033615 257.25 121.38672C 246.89995 123.03677 236.39018 123.166794 225.9336 123.203125C 224.62004 123.208824 223.30649 123.21452 221.95314 123.2204C 219.18237 123.23081 216.41165 123.23672 213.64087 123.240234C 210.86534 123.244576 208.09013 123.25833 205.3147 123.28125C 178.80205 123.49558 153.0127 121.25902 127 116C 126.04174 115.8118 125.08349 115.6236 124.09619 115.42969C 89.009315 108.53752 53.619114 98.81715 21.703125 82.33594C 19.109793 81.05426 16.512268 79.97269 13.8125 78.9375C 13.01586 78.615234 12.219219 78.29297 11.3984375 77.96094C 9.752342 77.30143 8.089142 76.68354 6.4140625 76.10156C 3.7579823 74.98718 2.0683775 74.007835 0 72C -0.59887695 69.566895 -0.59887695 69.566895 -0.73828125 66.57031C -0.79395264 65.40733 -0.84962404 64.24436 -0.9069824 63.046143C -0.94275045 61.697548 -0.973447 60.34881 -1 59C -1.0146328 58.258095 -1.0292658 57.51619 -1.044342 56.7518C -1.1279929 51.664585 -1.1424617 46.578777 -1.1303711 41.490967C -1.125044 38.834415 -1.1303298 36.178032 -1.1367188 33.521484C -1.1360571 31.770832 -1.1347743 30.020182 -1.1328125 28.269531C -1.1348367 27.506392 -1.136861 26.743252 -1.1389465 25.956985C -1.1037042 17.263891 -0.48447055 8.720469 0 0z" stroke="none" fill="#689C57" fill-rule="nonzero" />
    <path transform="matrix(1 0 0 1 391.66016 46.07422)"  d="M0 0C 0.87116456 0.41781738 1.7423291 0.83563477 2.6398926 1.2661133C 3.5515015 1.7106787 4.4631104 2.155244 5.4023438 2.6132812C 6.3352222 3.0630028 7.2681007 3.5127246 8.229248 3.9760742C 14.963539 7.230738 21.674858 10.531192 28.339844 13.925781C 28.339844 14.585781 28.339844 15.245781 28.339844 15.925781C 29.15711 16.155235 29.974375 16.384687 30.816406 16.621094C 35.131195 18.21881 38.812035 20.387146 42.714844 22.800781C 43.497787 23.281843 44.28073 23.762905 45.087402 24.258545C 52.546074 28.919277 59.548973 34.10631 66.4895 39.498535C 68.47363 41.028976 70.47662 42.53196 72.484375 44.03125C 92.202354 58.791145 111.289345 76.3993 126.33984 95.92578C 127.534805 97.430115 127.534805 97.430115 128.7539 98.96484C 135.0844 106.98017 140.8492 115.31592 146.33984 123.92578C 146.70932 124.50489 147.0788 125.08401 147.45947 125.680664C 157.45338 141.50398 166.66132 158.32169 172.90234 175.98828C 173.31613 177.15488 173.72992 178.32149 174.15625 179.52344C 175.24371 182.64943 176.29637 185.78491 177.33984 188.92578C 132.7977 192.29533 132.7977 192.29533 124.59375 185.36328C 121.44751 181.51585 119.446846 177.20384 117.57129 172.62451C 115.454765 167.98613 112.27412 164.17523 109.15234 160.17578C 107.98714 158.6053 106.82687 157.03113 105.671875 155.45312C 104.83584 154.31787 104.83584 154.31787 103.98291 153.15967C 101.43044 149.68938 98.88512 146.21385 96.33984 142.73828C 92.70564 137.77596 89.04635 132.8344 85.33984 127.92578C 82.32136 128.357 80.42363 128.87132 77.83984 130.55078C 75.33984 131.92578 75.33984 131.92578 73.02344 131.76953C 68.676704 130.40288 65.63616 127.40412 62.15625 124.54297C 59.438026 122.65494 59.438026 122.65494 56.277344 123.01953C 52.605724 124.15227 49.792816 125.89552 46.585938 127.96484C 43.7374 129.18352 42.2619 128.81891 39.339844 127.92578C 38.659218 127.554535 37.978592 127.18328 37.277344 126.80078C 35.40032 125.766266 35.40032 125.766266 33.41797 126.07422C 30.47706 127.27933 29.74684 128.95135 28.152344 131.67578C 25.386242 136.22223 22.569592 140.70488 19.589844 145.11328C 19.024872 145.97809 19.024872 145.97809 18.448486 146.86035C 17.355469 148.46875 17.355469 148.46875 15.339844 150.92578C 12.339844 150.92578 12.339844 150.92578 10.296875 149.02734C 9.2353325 147.80145 9.2353325 147.80145 8.152344 146.55078C 7.436914 145.73868 6.721484 144.92656 5.984375 144.08984C 4.3398438 141.92578 4.3398438 141.92578 4.3398438 139.92578C 3.831953 140.29832 3.3240626 140.67085 2.8007812 141.05469C -2.8741753 144.9549 -2.8741753 144.9549 -7.0351562 144.80078C -9.660156 143.92578 -9.660156 143.92578 -11.660156 142.92578C -16.976828 142.7055 -16.976828 142.7055 -22.152344 143.64844C -24.660156 143.92578 -24.660156 143.92578 -26.898438 142.49219C -27.58293 141.8309 -28.267422 141.16962 -28.972656 140.48828C -29.670038 139.82957 -30.367422 139.17085 -31.085938 138.49219C -31.60543 137.97528 -32.124924 137.45836 -32.660156 136.92578C -33.130665 137.3473 -33.601173 137.76883 -34.085938 138.20312C -34.708553 138.75098 -35.331173 139.29883 -35.972656 139.86328C -36.58754 140.40855 -37.202423 140.95383 -37.835938 141.51562C -39.660156 142.92578 -39.660156 142.92578 -42.660156 143.92578C -44.144287 141.99191 -45.62253 140.054 -47.097656 138.11328C -47.518536 137.56607 -47.939415 137.01886 -48.373047 136.45508C -50.271603 133.94899 -51.658222 131.93158 -52.660156 128.92578C -53.19125 129.3473 -53.722343 129.76883 -54.26953 130.20312C -54.975937 130.75098 -55.682343 131.29883 -56.410156 131.86328C -57.10625 132.40855 -57.802345 132.95383 -58.51953 133.51562C -61.9563 135.77963 -61.9563 135.77963 -64.66016 135.92578C -67.68957 134.73785 -70.5403 133.39813 -73.43945 131.93164C -76.22323 130.61934 -78.06268 129.80478 -81.12891 130.42578C -85.2918 132.89268 -89.25244 135.6151 -93.2207 138.38086C -93.862015 138.81978 -94.50332 139.25871 -95.16406 139.71094C -95.73971 140.11192 -96.31535 140.5129 -96.90845 140.92603C -98.84296 142.0301 -100.45643 142.60402 -102.66016 142.92578C -104.44141 141.5625 -104.44141 141.5625 -106.16016 139.61328C -108.50318 136.98802 -110.41419 135.3281 -113.66016 133.92578C -114.0314 135.19966 -114.0314 135.19966 -114.41016 136.49927C -115.76537 140.2142 -117.58128 143.41252 -119.66016 146.75C -120.473114 148.07964 -121.2856 149.40956 -122.09766 150.73975C -122.51918 151.42647 -122.940704 152.1132 -123.375 152.82074C -125.50061 156.30243 -127.57942 159.81169 -129.66016 163.32031C -130.49214 164.72073 -131.32417 166.12112 -132.15625 167.52148C -132.5673 168.21379 -132.97835 168.9061 -133.40186 169.61938C -134.68642 171.78252 -135.9721 173.94498 -137.25781 176.10742C -138.0795 177.49084 -138.90111 178.87431 -139.72266 180.25781C -140.10486 180.90039 -140.48708 181.54298 -140.88086 182.20503C -142.8515 185.52063 -142.8515 185.52063 -144.66016 188.92578C -160.50015 188.92578 -176.34015 188.92578 -192.66016 188.92578C -184.05843 154.51884 -163.68082 122.32814 -141.66016 94.92578C -140.86351 93.92289 -140.06688 92.92 -139.2461 91.88672C -132.384 83.47239 -124.74794 75.8022 -117.09766 68.11328C -116.30173 67.30945 -116.30173 67.30945 -115.489716 66.48938C -108.549324 59.49583 -101.40179 53.042023 -93.66016 46.92578C -92.595024 46.044838 -91.53201 45.161316 -90.47266 44.273438C -70.53828 28.076752 -48.761265 15.042449 -25.660156 3.9257812C -24.785688 3.5010352 -23.91122 3.0762892 -23.010254 2.6386719C -8.742145 -4.2238145 -8.742145 -4.2238145 0 0z" stroke="none" fill="#78BAE6" fill-rule="nonzero" />
    <path transform="matrix(1 0 0 1 425 315)"  d="M0 0C 50.82 0 101.64 0 154 0C 155.125 12.375 155.125 12.375 155.11353 17.389404C 155.11345 18.509735 155.11337 19.630066 155.1133 20.784348C 155.10814 21.952505 155.10298 23.120663 155.09766 24.324219C 155.09554 26.16534 155.09554 26.16534 155.09337 28.043655C 155.08781 31.924963 155.07527 35.80621 155.0625 39.6875C 155.05748 42.335285 155.05292 44.98307 155.04883 47.63086C 155.03786 54.08726 155.02118 60.543625 155 67C 154.34515 67.31228 153.6903 67.62455 153.01562 67.94629C 150.01006 69.38009 147.00502 70.81504 144 72.25C 142.97003 72.741135 141.94008 73.23227 140.8789 73.73828C 136.39899 75.87837 131.92589 78.02382 127.49609 80.26611C 123.73266 82.13258 119.97274 83.53871 116 84.875C 111.055244 86.573105 106.139915 88.30922 101.26709 90.204346C 86.88694 95.77642 72.00976 100.5442 56.839844 103.39453C 53.99783 103.9356 53.99783 103.9356 51.351562 104.94141C 46.463882 106.48518 41.484528 107.26742 36.4375 108.125C 35.409473 108.306755 34.381447 108.48852 33.322266 108.67578C 28.81675 109.45249 24.583849 110.10632 20 110C 20.208948 109.19623 20.208948 109.19623 20.42212 108.37622C 23.61164 95.26594 24.095 80.86254 17 69C 7.7599816 53.831413 -9.05773 45.394695 -25.8125 41C -30.501339 39.52899 -30.501339 39.52899 -32 37C -31.578947 32.57895 -31.578947 32.57895 -30 31C -27.582956 30.66931 -25.17474 30.38535 -22.75 30.125C -12.168235 28.880505 -2.4277782 27.158596 7 22C 7.66 22 8.32 22 9 22C 10.254979 18.235062 10.520644 15.9699135 10 12C 8.438856 9.75664 6.7274246 7.8535967 4.8242188 5.8945312C 3 4 3 4 0 0z" stroke="none" fill="#689C57" fill-rule="nonzero" />
    <path transform="matrix(1 0 0 1 453 169)"  d="M0 0C 2.9365118 1.963105 5.5861073 4.144355 8.316406 6.3828125C 10.86186 8.261307 10.86186 8.261307 13.6796875 7.84375C 16.127762 7.0475464 16.127762 7.0475464 18.5625 5.375C 21 4 21 4 22.863281 4.0585938C 26.036 5.4564457 27.642899 7.957279 29.625 10.6875C 30.059576 11.269109 30.49415 11.850718 30.941895 12.449951C 34.40021 17.104034 37.76436 21.828114 41.112305 26.562012C 44.28657 31.041092 47.562923 35.43464 50.875 39.8125C 55.261528 45.62161 59.544605 51.495857 63.75 57.4375C 64.27578 58.177826 64.80155 58.918148 65.34326 59.68091C 69 64.87613 69 64.87613 69 66C -21.75 66 -112.5 66 -206 66C -204.42152 61.264557 -203.06686 58.152096 -200.50781 54.027344C -200.16534 53.470493 -199.82289 52.913643 -199.47005 52.33992C -198.73814 51.150566 -198.00366 49.962788 -197.26682 48.77649C -195.33504 45.665207 -193.42323 42.54172 -191.51172 39.41797C -191.12877 38.792824 -190.74582 38.16768 -190.35127 37.52359C -185.02573 28.80346 -179.99693 19.911467 -175 11C -170.5906 12.529486 -168.47987 14.363134 -165.52734 17.855469C -164.06761 19.228985 -164.06761 19.228985 -162.16187 18.746094C -159.69598 17.895079 -157.98436 16.749937 -155.88281 15.207031C -155.11066 14.659824 -154.33852 14.1126175 -153.54297 13.548828C -151.93056 12.390962 -150.32631 11.221625 -148.73047 10.041016C -142.79431 5.877799 -142.79431 5.877799 -138.75 6.5C -137.38875 7.2425 -137.38875 7.2425 -136 8C -135.13116 8.364804 -134.26234 8.7296095 -133.36719 9.105469C -131.69849 9.8299675 -130.03183 10.55918 -128.36719 11.292969C -125.69064 12.092399 -124.56238 12.048247 -122 11C -120.342415 9.837447 -120.342415 9.837447 -118.875 8.4375C -116 6 -116 6 -114 6C -112.204605 8.089723 -110.52939 10.178421 -108.875 12.375C -108.407074 12.978281 -107.93914 13.581562 -107.45703 14.203125C -104 18.738588 -104 18.738588 -104 21C -103.457306 20.494688 -102.91461 19.989374 -102.35547 19.46875C -101.64004 18.819063 -100.92461 18.169374 -100.1875 17.5C -99.479805 16.850313 -98.77211 16.200624 -98.04297 15.53125C -96 14 -96 14 -93 14C -91.35156 15.347656 -91.35156 15.347656 -89.625 17.0625C -87.01609 19.582882 -87.01609 19.582882 -83.5625 19.875C -82.71687 19.58625 -81.87125 19.2975 -81 19C -76.44503 18.624992 -73.08574 18.95713 -69 21C -64.663795 20.728987 -62.318546 19.72595 -59 17C -58.34 17 -57.68 17 -57 17C -54.87631 19.524982 -52.940228 22.164555 -50.972656 24.8125C -50.32168 25.534374 -49.670704 26.25625 -49 27C -48.01 27 -47.02 27 -46 27C -44.114292 24.725113 -44.114292 24.725113 -42.3125 21.75C -41.612537 20.6659 -40.91258 19.581797 -40.191406 18.464844C -39.094475 16.735914 -38.00251 15.003996 -36.913574 13.27002C -35.86834 11.611621 -34.80935 9.961918 -33.75 8.3125C -33.126095 7.3186326 -32.502186 6.3247657 -31.859375 5.3007812C -30 3 -30 3 -27.953125 2.0742188C -24.907118 1.9584705 -22.686398 3.6568015 -20 5C -15.771698 4.4561105 -12.281792 2.0313613 -8.6328125 -0.0390625C -5.2321854 -1.2802409 -3.4577906 -1.0351064 0 0z" stroke="none" fill="#4A477C" fill-rule="nonzero" />
    <path transform="matrix(1 0 0 1 181 315)"  d="M0 0C 2.97 0 5.94 0 9 0C 9 22.11 9 44.22 9 67C 22.275131 73.32149 35.110504 79.39575 48.9375 84.1875C 49.77958 84.47939 50.62166 84.771286 51.489258 85.07202C 53.333855 85.70899 55.179096 86.344086 57.024902 86.97754C 59.07337 87.68154 61.1205 88.38945 63.166504 89.100586C 84.1314 96.374054 105.128555 102.222824 127 106C 128.37425 106.266655 129.74794 106.53627 131.1211 106.80859C 146.68161 109.843216 160.825 111.78444 176 106C 177.55655 105.41992 177.55655 105.41992 179.14453 104.828125C 192.26768 99.63951 205.9499 92.874084 213 80C 214.86877 74.3937 214.94931 68.323906 212.5 62.875C 208.52075 55.925323 202.28307 51.113388 195.89062 46.507812C 191.83688 43.274864 186.67201 38.12218 185.5586 32.94922C 185.3776 29.568674 185.28416 27.040192 187.25 24.183594C 191.5536 20.208736 196.40137 18.438465 202 17C 202.61327 16.828876 203.22655 16.657753 203.8584 16.481445C 206.0779 15.982489 208.1069 15.826691 210.3789 15.753906C 211.21309 15.722324 212.04727 15.6907425 212.90674 15.658203C 213.78314 15.626621 214.65955 15.595039 215.5625 15.5625C 227.61386 15.36868 227.61386 15.36868 239 12C 237.80965 6.941 234.74405 5.04038 230.67969 2.234375C 230.1254 1.8270313 229.57109 1.4196875 229 1C 229 0.67 229 0.34 229 0C 241.74004 -1.5288036 241.74004 -1.5288036 247.1875 2.15625C 254.75192 9.808629 254.75192 9.808629 255.375 15.3125C 255 19 255 19 253.0625 21.6875C 242.12141 29.949139 227.32977 31.18101 214 32C 213.67 33.65 213.34 35.3 213 37C 215.57872 39.466595 217.25256 40.049686 220.8125 40.75C 231.702 42.924305 242.45717 49.062737 251 56C 251.7064 56.569767 252.41281 57.13953 253.14062 57.726562C 259.7001 63.610073 266.45267 74.092094 267.16113 83.03369C 267.20697 85.56427 267.23532 88.09405 267.25 90.625C 267.28094 91.92244 267.28094 91.92244 267.3125 93.24609C 267.34915 99.35747 266.28598 104.33677 264 110C 264.874 109.818245 265.74796 109.63648 266.64844 109.44922C 273.09665 108.13119 279.53397 106.89197 286.03613 105.86865C 292.10565 104.91197 297.89954 103.96311 303.67188 101.79297C 306.6962 100.76287 309.762 100.09464 312.875 99.375C 329.25983 95.45781 345.39938 89.72829 360.9414 83.25391C 363.74866 82.103035 366.56534 81.09926 369.4375 80.125C 378.10583 77.04032 386.20886 72.49318 394.35547 68.25391C 397 67 397 67 399 67C 398.67 44.89 398.34 22.78 398 0C 400.97 0 403.94 0 407 0C 408.79623 12.213276 409.2862 24.194826 409.2058 36.531982C 409.18738 39.45826 409.1853 42.38422 409.18555 45.310547C 409.18063 47.20573 409.1748 49.100914 409.16797 50.996094C 409.16687 51.853596 409.16574 52.7111 409.1646 53.59459C 409.1455 56.065655 409.08636 58.5304 409 61C 408.97232 61.901478 408.9446 62.802956 408.9161 63.73175C 408.51816 70.41434 408.51816 70.41434 406.16528 73.07373C 404.96393 73.652115 404.96393 73.652115 403.73828 74.24219C 402.829 74.70206 401.91974 75.161934 400.9829 75.63574C 399.50638 76.31105 399.50638 76.31105 398 77C 397.01694 77.48888 396.03384 77.97775 395.021 78.481445C 391.7658 80.082664 388.48456 81.61191 385.1875 83.125C 384.58694 83.40113 383.98642 83.67726 383.36768 83.96176C 378.9237 86.00133 374.46613 88.00942 370 90C 369.08304 90.409164 369.08304 90.409164 368.14752 90.8266C 337.3531 104.52274 305.50735 112.52502 272.4546 118.55029C 270.08893 118.9837 267.72604 119.43004 265.36328 119.87891C 263.90897 120.14904 262.45456 120.4186 261 120.6875C 259.14374 121.033615 259.14374 121.033615 257.25 121.38672C 246.89995 123.03677 236.39018 123.166794 225.9336 123.203125C 224.62004 123.208824 223.30649 123.21452 221.95314 123.2204C 219.18237 123.23081 216.41165 123.23672 213.64087 123.240234C 210.86534 123.244576 208.09013 123.25833 205.3147 123.28125C 178.80205 123.49558 153.0127 121.25902 127 116C 126.04174 115.8118 125.08349 115.6236 124.09619 115.42969C 89.009315 108.53752 53.619114 98.81715 21.703125 82.33594C 19.109793 81.05426 16.512268 79.97269 13.8125 78.9375C 13.01586 78.615234 12.219219 78.29297 11.3984375 77.96094C 9.752342 77.30143 8.089142 76.68354 6.4140625 76.10156C 3.7579823 74.98718 2.0683775 74.007835 0 72C -0.59887695 69.566895 -0.59887695 69.566895 -0.73828125 66.57031C -0.79395264 65.40733 -0.84962404 64.24436 -0.9069824 63.046143C -0.94275045 61.697548 -0.973447 60.34881 -1 59C -1.0146328 58.258095 -1.0292658 57.51619 -1.044342 56.7518C -1.1279929 51.664585 -1.1424617 46.578777 -1.1303711 41.490967C -1.125044 38.834415 -1.1303298 36.178032 -1.1367188 33.521484C -1.1406126 22.31521 -0.7476087 11.180923 0 0z" stroke="none" fill="#F8F9F9" fill-rule="nonzero" />
    <path transform="matrix(1 0 0 1 391.66016 46.07422)"  d="M0 0C 0.87116456 0.41781738 1.7423291 0.83563477 2.6398926 1.2661133C 3.5515015 1.7106787 4.4631104 2.155244 5.4023438 2.6132812C 6.3352222 3.0630028 7.2681007 3.5127246 8.229248 3.9760742C 14.963539 7.230738 21.674858 10.531192 28.339844 13.925781C 28.339844 14.585781 28.339844 15.245781 28.339844 15.925781C 29.15711 16.155235 29.974375 16.384687 30.816406 16.621094C 35.131195 18.21881 38.812035 20.387146 42.714844 22.800781C 43.497787 23.281843 44.28073 23.762905 45.087402 24.258545C 52.546074 28.919277 59.548973 34.10631 66.4895 39.498535C 68.47363 41.028976 70.47662 42.53196 72.484375 44.03125C 92.202354 58.791145 111.289345 76.3993 126.33984 95.92578C 127.534805 97.430115 127.534805 97.430115 128.7539 98.96484C 135.0844 106.98017 140.8492 115.31592 146.33984 123.92578C 146.70932 124.50489 147.0788 125.08401 147.45947 125.680664C 157.4741 141.5368 166.63379 158.37822 172.96484 176.05078C 173.39023 177.22899 173.81563 178.40718 174.2539 179.6211C 175.1669 182.39949 175.8512 185.04816 176.33984 187.92578C 173.36984 187.92578 170.39984 187.92578 167.33984 187.92578C 167.03433 187.03761 166.72882 186.14946 166.41406 185.23438C 157.88332 161.14224 145.82683 138.26886 130.33984 117.92578C 129.089 116.15553 127.83904 114.38468 126.58984 112.61328C 121.57077 105.71082 115.96676 99.33259 110.33984 92.92578C 109.22996 91.645744 109.22996 91.645744 108.09766 90.33984C 98.78844 79.765976 88.881226 69.62237 77.80859 60.89453C 75.43969 59.00541 73.201836 57.03075 70.96484 54.98828C 56.21416 41.79852 39.326023 30.991665 22.339844 20.925781C 21.408577 20.366972 21.408577 20.366972 20.458496 19.796875C 6.2309737 10.503603 6.2309737 10.503603 -9.707031 7.1914062C -10.673828 7.554922 -10.673828 7.554922 -11.660156 7.9257812C -12.495469 8.191328 -13.330781 8.456875 -14.191406 8.730469C -40.200108 18.10729 -65.14588 35.541992 -86.001465 53.51123C -87.56752 54.84678 -89.169586 56.139767 -90.77344 57.429688C -98.063644 63.34893 -104.74939 69.80858 -111.41016 76.42578C -112.285675 77.29203 -113.16119 78.15828 -114.06323 79.05078C -119.24487 84.257416 -124.0385 89.64342 -128.62451 95.38208C -130.7179 97.997925 -132.86952 100.55711 -135.03516 103.11328C -143.23688 113.16287 -150.2159 124.1128 -157.16016 135.05078C -157.66458 135.8442 -158.169 136.63762 -158.68872 137.45508C -161.24644 141.52385 -163.58557 145.58376 -165.66016 149.92578C -166.24152 151.07692 -166.82289 152.22804 -167.42188 153.41406C -171.04839 160.60591 -174.60141 167.8272 -178.03516 175.11328C -178.36862 175.81944 -178.70209 176.5256 -179.04565 177.25317C -180.69518 180.77296 -182.26436 184.29529 -183.66016 187.92578C -186.30016 187.92578 -188.94016 187.92578 -191.66016 187.92578C -188.26772 155.35835 -161.74304 119.586136 -141.66016 94.92578C -140.86739 93.92934 -140.07462 92.93289 -139.25781 91.90625C -132.3968 83.48127 -124.75316 75.80744 -117.09766 68.11328C -116.30173 67.30945 -116.30173 67.30945 -115.489716 66.48938C -108.549324 59.49583 -101.40179 53.042023 -93.66016 46.92578C -92.595024 46.044838 -91.53201 45.161316 -90.47266 44.273438C -70.53828 28.076752 -48.761265 15.042449 -25.660156 3.9257812C -24.785688 3.5010352 -23.91122 3.0762892 -23.010254 2.6386719C -8.742145 -4.2238145 -8.742145 -4.2238145 0 0z" stroke="none" fill="#F5F8FA" fill-rule="nonzero" />
    <path transform="matrix(1 0 0 1 369 91)"  d="M0 0C 3.6333559 1.515095 6.7335377 3.8223584 10 6C 10.804375 5.34 11.60875 4.68 12.4375 4C 15.835212 1.7722552 18.71164 1.3047955 22.742188 1.46875C 26.689816 2.3976038 29.48808 4.8823104 32 8C 32 8.66 32 9.32 32 10C 32.858517 9.518536 32.858517 9.518536 33.734375 9.027344C 37.485138 7.3265667 40.967 7.3454638 45 8C 49.524765 9.964907 53.527225 12.636281 56 17C 57.77326 22.319778 58.28067 28.196243 55.90625 33.39453C 52.676872 38.02388 49.503063 40.387035 44 42C 42.627487 42.167637 41.252117 42.313248 39.875 42.4375C 35.618004 43.05545 34.074627 44.10623 31 47C 27.85658 48.57171 24.442286 48.23176 21 48C 20.01 47.67 19.02 47.34 18 47C 17.79375 47.7425 17.5875 48.485 17.375 49.25C 15.486847 53.026306 13.806341 54.1648 10 56C 5.1583953 56.76691 1.3587612 56.780563 -2.9375 54.3125C -5 52 -5 52 -6.25 49.3125C -7.7317777 46.822037 -7.7317777 46.822037 -10.0078125 46.601562C -11.597085 46.491413 -13.186981 46.38997 -14.777344 46.296875C -18.089605 45.854465 -19.74809 44.38839 -22 42C -24.501202 37.769245 -24.839142 33.810524 -24 29C -22.590069 26.426483 -21.195105 25.038311 -19 23C -18.34 23 -17.68 23 -17 23C -17.33 22.01 -17.66 21.02 -18 20C -18.399166 15.471 -18.562927 11.362876 -16.8125 7.125C -11.95169 1.4261185 -7.5186434 -1.017867 0 0z" stroke="none" fill="#1A98D4" fill-rule="nonzero" />
    <path transform="matrix(1 0 0 1 542 251)"  d="M0 0C 28.05266 0 28.05266 0 36 7.375C 40.955467 13.007833 42.58823 17.633877 42.34375 25.121094C 41.464676 32.483353 38.848824 38.06209 33.07422 42.746094C 25.757748 47.169044 20.011887 47.38155 11.5625 47.1875C 5.8390627 47.09469 5.8390627 47.09469 0 47C 0 31.49 0 15.98 0 0z" stroke="none" fill="#F1F4F6" fill-rule="nonzero" />
    <path transform="matrix(1 0 0 1 305 135)"  d="M0 0C 2.9756532 1.3118043 4.782412 2.6003215 6.8125 5.1328125C 7.3250637 5.766709 7.837627 6.4006057 8.365723 7.053711C 8.905034 7.7372365 9.444345 8.420762 10 9.125C 10.563804 9.82915 11.127607 10.5333 11.708496 11.258789C 17.234768 18.203197 22.576176 25.2884 27.837158 32.435303C 28.814333 33.75017 29.820002 35.043797 30.832031 36.33203C 32 38 32 38 32.0625 39.9375C 30.337774 43.285496 28.113226 44.944096 25 47C 19.768343 47.243332 15.208503 44.244476 10.683594 41.86328C 8.072919 40.771767 8.072919 40.771767 5.6328125 41.539062C 1.3761859 43.901047 -2.5701697 46.673904 -6.560547 49.45508C -7.5225096 50.11347 -7.5225096 50.11347 -8.503906 50.785156C -9.079554 51.186134 -9.6552 51.587112 -10.248291 52.000244C -12.184426 53.10526 -13.793705 53.681164 -16 54C -17.851562 52.601562 -17.851562 52.601562 -19.625 50.625C -22.017776 47.92635 -22.017776 47.92635 -25 46C -24.412613 41.54591 -22.716536 38.430088 -20.429688 34.589844C -20.070372 33.981693 -19.711056 33.373543 -19.34085 32.746964C -18.192293 30.80639 -17.033941 28.871887 -15.875 26.9375C -15.11912 25.665112 -14.363906 24.392328 -13.609375 23.11914C -12.127722 20.620405 -10.6426735 18.123737 -9.155273 15.628418C -6.0672436 10.440131 -3.0316894 5.221378 0 0z" stroke="none" fill="#D1D2D4" fill-rule="nonzero" />
    <path transform="matrix(1 0 0 1 231 251)"  d="M0 0C 3.96 -0.0825 7.92 -0.165 12 -0.25C 13.8485155 -0.30462402 13.8485155 -0.30462402 15.734375 -0.36035156C 23.29331 -0.43623465 28.634663 0.5008757 34.585938 5.27124C 37.42775 8.11747 38.34308 10.609682 38.5 14.5C 38.237305 18.613253 37.394073 21.568493 35 25C 29.842106 29 29.842106 29 27 29C 27.794062 30.048008 28.588125 31.096016 29.40625 32.17578C 30.437876 33.55441 31.469105 34.93333 32.5 36.3125C 33.024647 37.002792 33.549297 37.693085 34.089844 38.404297C 34.586132 39.07139 35.08242 39.738476 35.59375 40.42578C 36.05459 41.03849 36.51543 41.651196 36.990234 42.28247C 38 44 38 44 38 47C 32.557 48.229065 32.557 48.229065 29 47C 24.857147 43.05114 21.830904 37.928967 19 33C 19 32.34 19 31.68 19 31C 15.37 31 11.74 31 8 31C 8 36.28 8 41.56 8 47C 5.36 47 2.72 47 0 47C 0 31.49 0 15.98 0 0z" stroke="none" fill="#F2F5F7" fill-rule="nonzero" />
    <path transform="matrix(1 0 0 1 295 251)"  d="M0 0C 2.64 0 5.28 0 8 0C 12.000398 7.770645 15.599707 15.6918545 19.125 23.6875C 19.649649 24.871504 20.174297 26.055508 20.714844 27.27539C 21.715717 29.536856 22.71362 31.79964 23.708008 34.063965C 24.475239 35.807487 25.248373 37.548462 26.03418 39.28369C 27.281725 42.07056 28 43.90136 28 47C 25.36 47 22.72 47 20 47C 18.35 43.7 16.7 40.4 15 37C 7.74 37 0.48 37 -7 37C -8.98 41.95 -8.98 41.95 -11 47C -13.64 47 -16.28 47 -19 47C -18.408678 42.341354 -17.120228 38.53114 -15.234375 34.23828C -14.9591 33.60698 -14.683825 32.975674 -14.4002075 32.32524C -13.523119 30.318157 -12.636669 28.315367 -11.75 26.3125C -11.169969 24.987894 -10.590536 23.663027 -10.011719 22.33789C -6.7394238 14.862485 -3.401061 7.4177647 0 0z" stroke="none" fill="#F1F4F6" fill-rule="nonzero" />
    <path transform="matrix(1 0 0 1 505 251)"  d="M0 0C 2.64 0 5.28 0 8 0C 10.473922 3.975945 12.346683 7.756664 13.875 12.1875C 15.657752 17.298983 17.937937 21.986183 20.40625 26.796875C 22.170965 30.343607 23.799644 33.928623 25.375 37.5625C 25.877735 38.71879 26.380468 39.875076 26.898438 41.066406C 28 44 28 44 28 47C 25.36 47 22.72 47 20 47C 19.325916 45.733086 18.660995 44.461292 18 43.1875C 17.62875 42.479805 17.2575 41.77211 16.875 41.04297C 16 39 16 39 16 36C 8.41 36.33 0.82 36.66 -7 37C -8.98 41.95 -8.98 41.95 -11 47C -13.64 47 -16.28 47 -19 47C -18.59769 41.904083 -16.69489 38.24921 -14.378906 33.808594C -12.959967 30.918459 -11.809854 28.017038 -10.6875 25C -7.510882 16.498474 -3.738776 8.266128 0 0z" stroke="none" fill="#F1F4F6" fill-rule="nonzero" />
    <path transform="matrix(1 0 0 1 447 136)"  d="M0 0C 1.7265625 0.1328125 1.7265625 0.1328125 4 1C 5.6153183 2.9299123 6.989912 4.7893248 8.375 6.875C 9.2426405 8.1407995 10.11257 9.405033 10.984375 10.667969C 11.694971 11.701233 11.694971 11.701233 12.419922 12.755371C 14.1569 15.22289 15.952829 17.638445 17.765625 20.050781C 18.404516 20.902369 19.043407 21.753956 19.70166 22.631348C 20.97278 24.320688 22.248425 26.006634 23.528809 27.688965C 24.109692 28.465786 24.690577 29.242607 25.289062 30.042969C 25.81194 30.734148 26.334814 31.425327 26.873535 32.13745C 28 34 28 34 28 37C 26.425781 38.421875 26.425781 38.421875 24.3125 39.75C 23.628008 40.198593 22.943516 40.647186 22.238281 41.109375C 19.29422 42.280834 17.983562 42.042885 15 41C 12.150598 39.000854 9.504444 36.827267 6.8164062 34.617188C 4.0981836 32.729156 4.0981836 32.729156 0.9375 33.09375C -2.7341182 34.226482 -5.5470257 35.969738 -8.753906 38.039062C -11.633084 39.27085 -13.049773 38.943882 -16 38C -18.040495 36.729504 -20.050175 35.40569 -22 34C -18.412083 27.766874 -14.540149 21.805304 -10.408691 15.918457C -6.769704 10.717036 -3.3570266 5.386355 0 0z" stroke="none" fill="#D0D1D3" fill-rule="nonzero" />
    <path transform="matrix(1 0 0 1 424 251)"  d="M0 0C 2.64 0 5.28 0 8 0C 8 15.51 8 31.02 8 47C 5.36 47 2.72 47 0 47C 0 40.73 0 34.46 0 28C -7.26 28 -14.52 28 -22 28C -22 34.27 -22 40.54 -22 47C -24.64 47 -27.28 47 -30 47C -30 31.82 -30 16.64 -30 1C -27.36 1 -24.72 1 -22 1C -22 7.27 -22 13.54 -22 20C -14.74 20 -7.48 20 0 20C 0 13.4 0 6.8 0 0z" stroke="none" fill="#F2F5F7" fill-rule="nonzero" />
    <path transform="matrix(1 0 0 1 445 252)"  d="M0 0C 11.22 0 22.44 0 34 0C 34 2.31 34 4.62 34 7C 25.42 7 16.84 7 8 7C 8 10.96 8 14.92 8 19C 15.59 19 23.18 19 31 19C 31 21.31 31 23.62 31 26C 23.08 26 15.16 26 7 26C 7 30.29 7 34.58 7 39C 15.91 39 24.82 39 34 39C 34 41.31 34 43.62 34 46C 22.78 46 11.56 46 0 46C 0 30.82 0 15.64 0 0z" stroke="none" fill="#F7F9FA" fill-rule="nonzero" />
    <path transform="matrix(1 0 0 1 550 259)"  d="M0 0C 16.708334 0 16.708334 0 22 5C 25.467646 8.792738 25.450415 12.630492 25.289062 17.566406C 24.65223 22.927853 22.03629 26.57527 18 30C 14 32 14 32 0 32C 0 21.44 0 10.88 0 0z" stroke="none" fill="#0C4D72" fill-rule="nonzero" />
    <path transform="matrix(1 0 0 1 185 252)"  d="M0 0C 12.21 0 24.42 0 37 0C 37 2.31 37 4.62 37 7C 32.05 7 27.1 7 22 7C 22 19.87 22 32.74 22 46C 19.36 46 16.72 46 14 46C 14 33.13 14 20.26 14 7C 9.38 7 4.76 7 0 7C 0 4.69 0 2.38 0 0z" stroke="none" fill="#F8F9FA" fill-rule="nonzero" />
    <path transform="matrix(1 0 0 1 353 251)"  d="M0 0C 2.64 0 5.28 0 8 0C 8 13.2 8 26.4 8 40C 15.92 40 23.84 40 32 40C 32 42.31 32 44.62 32 47C 21.44 47 10.88 47 0 47C 0 31.49 0 15.98 0 0z" stroke="none" fill="#F5F7F9" fill-rule="nonzero" />
    <path transform="matrix(1 0 0 1 375 164)"  d="M0 0C 3.88848 1.5273036 5.763652 3.8744264 8.3125 7.125C 12.087173 11.86834 15.967541 16.474829 20 21C 17.429173 23.94889 15.722668 25.778776 11.9375 26.9375C 8.736062 27.005615 7.781552 26.390776 5 25C -0.31836236 24.74221 -0.31836236 24.74221 -5.484375 25.726562C -8 26 -8 26 -10.238281 24.566406C -10.922773 23.905117 -11.607265 23.243828 -12.3125 22.5625C -13.358574 21.574434 -13.358574 21.574434 -14.425781 20.566406C -14.945273 20.049492 -15.464766 19.532578 -16 19C -14.686928 16.086535 -13.288184 14.054902 -10.996094 11.8359375C -10.420527 11.271328 -9.844961 10.706718 -9.251953 10.125C -8.653184 9.5475 -8.054414 8.97 -7.4375 8.375C -6.246506 7.2183986 -5.0576 6.0596423 -3.8710938 4.8984375C -3.3444312 4.3897414 -2.8177686 3.8810449 -2.2751465 3.3569336C -0.8835783 2.0059988 -0.8835783 2.0059988 0 0z" stroke="none" fill="#D2D4D6" fill-rule="nonzero" />
    <path transform="matrix(1 0 0 1 332 251)"  d="M0 0C 2.64 0 5.28 0 8 0C 8 15.51 8 31.02 8 47C 5.36 47 2.72 47 0 47C 0 31.49 0 15.98 0 0z" stroke="none" fill="#F4F6F8" fill-rule="nonzero" />
    <path transform="matrix(1 0 0 1 239 259)"  d="M0 0C 2.7510543 -0.10812003 5.497851 -0.18734945 8.25 -0.25C 9.027305 -0.28351563 9.804609 -0.31703126 10.605469 -0.3515625C 16.37215 -0.45013824 16.37215 -0.45013824 19.511719 1.8007812C 21.720697 5.064968 21.607975 7.1494856 21 11C 19.01254 13.665352 17.462957 15.694695 14.0896 16.398682C 11.928757 16.49186 9.847618 16.436998 7.6875 16.3125C 5.150625 16.209375 2.61375 16.10625 0 16C 0 10.72 0 5.44 0 0z" stroke="none" fill="#115074" fill-rule="nonzero" />
    <path transform="matrix(1 0 0 1 426 316)"  d="M0 0C 49.83 0 99.66 0 151 0C 151 0.33 151 0.66 151 1C 102.82 1.33 54.64 1.66 5 2C 5.99 3.32 6.98 4.64 8 6C 7.01 6 6.02 6 5 6C 3.35 4.02 1.7 2.04 0 0z" stroke="none" fill="#73A552" fill-rule="nonzero" />
    <path transform="matrix(1 0 0 1 298 262)"  d="M0 0C 0.99 0.33 1.98 0.66 3 1C 4.0197887 3.3048403 4.853535 5.489173 5.625 7.875C 5.8415623 8.513086 6.058125 9.151172 6.28125 9.808594C 6.865248 11.535355 7.4333596 13.267466 8 15C 8.33 15.99 8.66 16.98 9 18C 3.72 18 -1.56 18 -7 18C -5.3950214 12.8793545 -3.8620048 8.553189 -1 4C -0.30420545 1.8086946 -0.30420545 1.8086946 0 0z" stroke="none" fill="#125074" fill-rule="nonzero" />
    <path transform="matrix(1 0 0 1 508 262)"  d="M0 0C 0.99 0.33 1.98 0.66 3 1C 4.3515625 3.8007812 4.3515625 3.8007812 5.625 7.3125C 6.0503907 8.463633 6.4757814 9.614765 6.9140625 10.800781C 8 14 8 14 9 18C 4.05 18 -0.9 18 -6 18C -5.1995025 13.197016 -4.324204 9.978931 -2.4375 5.625C -1.982461 4.5653906 -1.5274218 3.5057812 -1.0585938 2.4140625C -0.7092578 1.6174219 -0.35992187 0.82078123 0 0z" stroke="none" fill="#165276" fill-rule="nonzero" />
    <path transform="matrix(1 0 0 1 616 307)"  d="M0 0C 0.66 0 1.32 0 2 0C 2.66 2.97 3.32 5.94 4 9C -1.94 9 -7.88 9 -14 9C -13.67 9.99 -13.34 10.98 -13 12C -11.440134 23.342594 -11.847626 34.94787 -11.869629 46.366455C -11.875005 49.69031 -11.869649 53.014038 -11.863281 56.33789C -11.863942 58.479168 -11.865223 60.62044 -11.8671875 62.76172C -11.865163 63.74114 -11.863139 64.72056 -11.861053 65.72966C -11.881702 71.87632 -12.271025 77.896614 -13 84C -13.33 84 -13.66 84 -14 84C -13.99778 83.40405 -13.995559 82.80811 -13.993271 82.19411C -13.97071 75.84824 -13.955888 69.50239 -13.945068 63.156494C -13.940117 60.805252 -13.933354 58.454014 -13.924561 56.102783C -13.864889 39.707245 -14.211847 23.377048 -15 7C -9.72 7 -4.44 7 1 7C 0.67 4.69 0.34 2.38 0 0z" stroke="none" fill="#7FA0B4" fill-rule="nonzero" />
    <path transform="matrix(1 0 0 1 186 226)"  d="M0 0C 1.6261034 4.2278686 0.65453404 5.036398 -1 10C -12.22 10 -23.44 10 -35 10C -34.01 13.3 -33.02 16.6 -32 20C -32 20.99 -32 21.98 -32 23C -32.66 23 -33.32 23 -34 23C -34.674675 21.253073 -35.339443 19.502316 -36 17.75C -36.37125 16.775469 -36.7425 15.800938 -37.125 14.796875C -38 12 -38 12 -38 8C -26.12 8 -14.24 8 -2 8C -1.67 6.35 -1.34 4.7 -1 3C -0.67 2.01 -0.34 1.02 0 0z" stroke="none" fill="#6C93A9" fill-rule="nonzero" />
    <path transform="matrix(1 0 0 1 156 287)"  d="M0 0C 0.66 0 1.32 0 2 0C -0.2670378 9.502265 -2.7685823 18.767378 -6 28C -0.06 28 5.88 28 12 28C 12 30.97 12 33.94 12 37C 11.67 37 11.34 37 11 37C 11 34.36 11 31.72 11 29C 4.73 29 -1.54 29 -8 29C -7.3109226 24.865536 -6.589656 21.326523 -5.3710938 17.382812C -4.9021974 15.855273 -4.9021974 15.855273 -4.423828 14.296875C -4.09834 13.250156 -3.7728515 12.203438 -3.4375 11.125C -3.1081445 10.0550785 -2.778789 8.985156 -2.4394531 7.8828125C -1.6297251 5.2541304 -0.81647646 2.6265924 0 0z" stroke="none" fill="#9BB5C5" fill-rule="nonzero" />
    <path transform="matrix(1 0 0 1 275 93)"  d="M0 0C 0.66 0.33 1.32 0.66 2 1C 1.3096265 1.6851367 0.6192529 2.3702734 -0.09204102 3.0761719C -2.6871212 5.65296 -5.278733 8.233213 -7.869385 10.814453C -8.984673 11.924756 -10.1008625 13.034154 -11.218018 14.142578C -19.727858 22.576565 -19.727858 22.576565 -27.613037 31.591797C -29 33 -29 33 -32 34C -30.714804 31.133024 -29.428707 29.023922 -27 27C -26.34 27 -25.68 27 -25 27C -24.776993 26.44828 -24.553984 25.896563 -24.324219 25.328125C -22.58446 22.269432 -20.342356 20.19262 -17.8125 17.75C -14.443232 14.464935 -11.174647 11.150717 -8.125 7.5625C -5.6527877 4.661374 -3.0976155 2.2528112 0 0z" stroke="none" fill="#648DA5" fill-rule="nonzero" />
    <path transform="matrix(1 0 0 1 269 436)"  d="M0 0C 6.1119514 -0.26302847 10.991281 0.58120114 16.8125 2.375C 23.4954 4.340437 30.09674 5.981237 37 7C 37 7.66 37 8.32 37 9C 28.90095 8.374285 21.289236 6.465698 13.4375 4.4375C 12.129698 4.1042657 10.821756 3.7715793 9.513672 3.4394531C 6.341037 2.6316605 3.1699169 1.8183825 0 1C 0 0.67 0 0.34 0 0z" stroke="none" fill="#7A9DB1" fill-rule="nonzero" />
    <path transform="matrix(1 0 0 1 495 97)"  d="M0 0C 3.1695004 1.3877695 5.1647935 2.9761462 7.4960938 5.5195312C 8.137403 6.2124023 8.778711 6.9052734 9.439453 7.6191406C 10.098808 8.342949 10.758164 9.066758 11.4375 9.8125C 12.747962 11.236355 14.059145 12.659547 15.371094 14.082031C 15.992663 14.757258 16.614233 15.432486 17.254639 16.128174C 20.17248 19.257435 23.204073 22.247095 26.3125 25.1875C 28 27 28 27 28 29C 25.027056 27.675476 23.078472 26.282486 20.898438 23.875C 20.330122 23.255203 19.761806 22.635405 19.17627 21.996826C 18.58185 21.337873 17.987432 20.67892 17.375 20C 12.295088 14.444638 7.1276045 9.069421 1.6953125 3.8554688C 0 2 0 2 0 0z" stroke="none" fill="#94B0C0" fill-rule="nonzero" />
    <path transform="matrix(1 0 0 1 560 180)"  d="M0 0C 3.2553947 3.8076491 5.697202 7.8243804 8 12.25C 8.521104 13.243626 8.521104 13.243626 9.052734 14.257324C 16.660933 28.87777 16.660933 28.87777 16 34C 13.301316 31.301315 12.249367 28.094595 10.8125 24.625C 8.098915 18.199347 5.031204 12.348005 1.2851562 6.453125C 0 4 0 4 0 0z" stroke="none" fill="#A4BBC9" fill-rule="nonzero" />
    <path transform="matrix(1 0 0 1 235 137)"  d="M0 0C 0 3.5027456 -0.62387633 4.2088823 -2.6679688 6.9492188C -3.2319336 7.7155666 -3.7958984 8.4819145 -4.376953 9.271484C -4.9744334 10.068769 -5.571914 10.866055 -6.1875 11.6875C -10.38106 17.33034 -14.351107 22.987228 -18 29C -19 26 -19 26 -17.8125 23.617188C -12.337549 15.333964 -6.409987 7.575439 0 0z" stroke="none" fill="#82A3B6" fill-rule="nonzero" />
    <path transform="matrix(1 0 0 1 616 307)"  d="M0 0C 0.66 0 1.32 0 2 0C 2.66 2.97 3.32 5.94 4 9C -1.94 9 -7.88 9 -14 9C -14 10.65 -14 12.3 -14 14C -14.33 14 -14.66 14 -15 14C -15 11.69 -15 9.38 -15 7C -9.72 7 -4.44 7 1 7C 0.67 4.69 0.34 2.38 0 0z" stroke="none" fill="#7398AD" fill-rule="nonzero" />
    <path transform="matrix(1 0 0 1 206 181)"  d="M0 0C 0.6953125 1.6523438 0.6953125 1.6523438 1 4C -0.2578125 6.6289062 -0.2578125 6.6289062 -2.125 9.5625C -5.5849495 15.199652 -8.404188 20.923168 -11 27C -11.66 27 -12.32 27 -13 27C -11.496475 22.022007 -9.411261 17.553139 -7.0625 12.9375C -6.5413966 11.896259 -6.5413966 11.896259 -6.0097656 10.833984C -4.141853 7.1298184 -2.1926415 3.5260975 0 0z" stroke="none" fill="#ACC1CE" fill-rule="nonzero" />
    <path transform="matrix(1 0 0 1 535 142)"  d="M0 0C 5.214883 3.8898532 8.469338 8.15436 11.9375 13.625C 12.443457 14.388125 12.949414 15.15125 13.470703 15.9375C 14.179365 17.039648 14.179365 17.039648 14.902344 18.164062C 15.330232 18.828735 15.758121 19.493408 16.198975 20.178223C 17 22 17 22 16 25C 15.6219015 24.445381 15.243804 23.890762 14.854248 23.319336C 13.13295 20.795574 11.410239 18.27278 9.6875 15.75C 9.092598 14.877305 8.497695 14.004609 7.8847656 13.105469C 7.0194826 11.838964 7.0194826 11.838964 6.1367188 10.546875C 5.6078005 9.771826 5.0788817 8.996778 4.5339355 8.198242C 3.4993029 6.7155375 2.4207942 5.262632 1.3039551 3.8408203C 0 2 0 2 0 0z" stroke="none" fill="#8DABBD" fill-rule="nonzero" />
    <path transform="matrix(1 0 0 1 451 167)"  d="M0 0C -2.3870184 1.3721603 -4.7825503 2.7224398 -7.1875 4.0625C -8.197803 4.6474123 -8.197803 4.6474123 -9.228516 5.2441406C -14.286277 8.032078 -14.286277 8.032078 -17.78125 7.875C -20.835861 6.6703644 -23.345537 4.9136825 -26 3C -25.34 2.67 -24.68 2.34 -24 2C -23.4225 2.309375 -22.845 2.61875 -22.25 2.9375C -19.287228 4.336587 -17.264305 4.230048 -14 4C -11.084766 2.9154873 -11.084766 2.9154873 -8.3125 1.4375C -3.3245902 -1.1081967 -3.3245902 -1.1081967 0 0z" stroke="none" fill="#DFE0E7" fill-rule="nonzero" />
    <path transform="matrix(1 0 0 1 464 72)"  d="M0 0C 4.305153 1.4481684 7.3199754 3.619953 10.8125 6.5C 11.788321 7.2940626 12.764141 8.088125 13.769531 8.90625C 14.505586 9.597187 15.241641 10.288125 16 11C 16 11.66 16 12.32 16 13C 17.32 13.66 18.64 14.32 20 15C 15.627906 15 13.263582 12.378253 10 9.75C 9.370937 9.258867 8.741875 8.767735 8.09375 8.261719C 4.937421 5.754042 2.2162008 3.422075 0 0z" stroke="none" fill="#7A9CB1" fill-rule="nonzero" />
    <path transform="matrix(1 0 0 1 218 418)"  d="M0 0C 4.346713 1.4136726 8.613564 2.9726064 12.875 4.625C 14.603633 5.2940235 14.603633 5.2940235 16.367188 5.9765625C 17.236015 6.3142967 18.104843 6.6520314 19 7C 19 7.66 19 8.32 19 9C 12.143817 7.074434 5.5674787 4.752752 -1 2C -0.67 1.34 -0.34 0.68 0 0z" stroke="none" fill="#89A8BA" fill-rule="nonzero" />
    <path transform="matrix(1 0 0 1 335 172)"  d="M0 0C 0.66 0.33 1.32 0.66 2 1C 1.7520629 4.347151 0.696823 5.3172784 -1.6875 7.8125C -5 10 -5 10 -8.125 10.0625C -11.29833 8.889748 -12.843318 7.571428 -15 5C -14.11248 5.286172 -14.11248 5.286172 -13.207031 5.578125C -10.7713 6.26156 -8.523441 6.7928834 -6 7C -2.4237995 4.988387 -1.2973564 3.8920693 0 0z" stroke="none" fill="#D7D7E0" fill-rule="nonzero" />
    <path transform="matrix(1 0 0 1 303 274)"  d="M0 0C 1.3756286 1.2896518 2.707664 2.626893 4 4C 4 4.66 4 5.32 4 6C -1.28 6 -6.56 6 -12 6C -12 5.34 -12 4.68 -12 4C -7.71 4 -3.42 4 1 4C 0.67 2.68 0.34 1.36 0 0z" stroke="none" fill="#396685" fill-rule="nonzero" />
    <path transform="matrix(1 0 0 1 257 111)"  d="M0 0C 0 3.4334488 -0.33204624 3.7375672 -2.5546875 6.1367188C -3.0870702 6.7135744 -3.6194532 7.2904296 -4.1679688 7.8847656C -4.731289 8.479668 -5.2946095 9.074571 -5.875 9.6875C -6.430586 10.2940035 -6.9861717 10.900508 -7.5585938 11.525391C -8.992759 13.061502 -10.492221 14.536077 -12 16C -12.66 16 -13.32 16 -14 16C -12.714805 13.133025 -11.428707 11.023923 -9 9C -8.34 9 -7.68 9 -7 9C -6.773125 8.443125 -6.54625 7.88625 -6.3125 7.3125C -4.641032 4.367533 -2.4472365 2.3184345 0 0z" stroke="none" fill="#8EACBD" fill-rule="nonzero" />
    <path transform="matrix(1 0 0 1 514 276)"  d="M0 0C 0.99 0.33 1.98 0.66 3 1C 3 1.99 3 2.98 3 4C -1.95 4 -6.9 4 -12 4C -12 3.34 -12 2.68 -12 2C -8.04 2 -4.08 2 0 2C 0 1.34 0 0.68 0 0z" stroke="none" fill="#3A6786" fill-rule="nonzero" />
    <path transform="matrix(1 0 0 1 474 171)"  d="M0 0C 0.66 0.33 1.32 0.66 2 1C 0.6176512 2.0390203 -0.7815579 3.0556345 -2.1875 4.0625C -2.9648046 4.6309767 -3.7421093 5.1994534 -4.5429688 5.7851562C -7 7 -7 7 -9.71875 6.8125C -12 6 -12 6 -13.3125 3.9375C -13.539375 3.298125 -13.76625 2.65875 -14 2C -13.443125 2.350625 -12.88625 2.70125 -12.3125 3.0625C -9.353741 4.261997 -8.023111 3.9585474 -5 3C -4.113125 2.46375 -3.22625 1.9275 -2.3125 1.375C -1.549375 0.92125 -0.78625 0.4675 0 0z" stroke="none" fill="#DCDEE6" fill-rule="nonzero" />
    <path transform="matrix(1 0 0 1 560 180)"  d="M0 0C 2.9517884 3.4607174 5.2890162 6.767567 7 11C 6.5742188 13.183594 6.5742188 13.183594 6 15C 4.989655 13.255952 3.9920757 11.504504 3 9.75C 2.1646874 8.288203 2.1646874 8.288203 1.3125 6.796875C 0 4 0 4 0 0z" stroke="none" fill="#7C9FB3" fill-rule="nonzero" />
    <path transform="matrix(1 0 0 1 488 109)"  d="M0 0C 3.2104387 1.3818846 5.0493636 2.9242191 7.25 5.625C 8.031172 6.572461 8.031172 6.572461 8.828125 7.5390625C 9.408203 8.262226 9.408203 8.262226 10 9C 7 9 7 9 5.1757812 7.5390625C 4.5608983 6.907422 3.9460156 6.275781 3.3125 5.625C 2.6898828 4.9985156 2.0672657 4.372031 1.4257812 3.7265625C 0 2 0 2 0 0z" stroke="none" fill="#1D5275" fill-rule="nonzero" />
    <path transform="matrix(1 0 0 1 358 182)"  d="M0 0C 1.3161168 0.9533602 2.6277895 1.9128578 3.9375 2.875C 4.6683984 3.4086719 5.3992968 3.9423437 6.1523438 4.4921875C 8 6 8 6 9 8C 5.1286798 7.426471 2.918272 5.5129566 0 3C -1.98 3.99 -1.98 3.99 -4 5C -2.68 3.35 -1.36 1.7 0 0z" stroke="none" fill="#4F4F83" fill-rule="nonzero" />
    <path transform="matrix(1 0 0 1 223 152)"  d="M0 0C 0.33 0.99 0.66 1.98 1 3C -0.43359375 5.6992188 -0.43359375 5.6992188 -2.4375 8.6875C -3.4255664 10.178301 -3.4255664 10.178301 -4.4335938 11.699219C -5.208965 12.838105 -5.208965 12.838105 -6 14C -6.33 13.01 -6.66 12.02 -7 11C -5.5664062 8.300781 -5.5664062 8.300781 -3.5625 5.3125C -2.5744336 3.8216991 -2.5744336 3.8216991 -1.5664062 2.3007812C -1.0494922 1.5415235 -0.5325781 0.7822656 0 0z" stroke="none" fill="#9CB5C5" fill-rule="nonzero" />
    <path transform="matrix(1 0 0 1 269 436)"  d="M0 0C 5.5267773 -0.19392201 9.756149 0.2520497 15 2C 15 2.33 15 2.66 15 3C 9.473223 3.193922 5.2438507 2.7479503 0 1C 0 0.67 0 0.34 0 0z" stroke="none" fill="#6A92A9" fill-rule="nonzero" />
    <path transform="matrix(1 0 0 1 206 181)"  d="M0 0C 1.0169313 2.6549823 1.1302215 3.6915538 0.00390625 6.359375C -0.4717578 7.148281 -0.9474219 7.9371877 -1.4375 8.75C -2.1471288 9.948828 -2.1471288 9.948828 -2.8710938 11.171875C -3.2436328 11.775156 -3.6161718 12.378437 -4 13C -5.0169315 10.345017 -5.1302214 9.308446 -4.0039062 6.640625C -3.528242 5.851719 -3.0525782 5.0628123 -2.5625 4.25C -2.0894141 3.4507813 -1.6163281 2.6515625 -1.1289062 1.828125C -0.7563672 1.2248437 -0.38382813 0.6215625 0 0z" stroke="none" fill="#87A6B8" fill-rule="nonzero" />
    <path transform="matrix(1 0 0 1 572 394)"  d="M0 0C 0.66 0.33 1.32 0.66 2 1C -0.7247877 4.3659143 -4.0685678 5.4422626 -8 7C -8.66 6.34 -9.32 5.68 -10 5C -8.380078 4.136241 -6.7538815 3.2842414 -5.125 2.4375C -4.220078 1.961836 -3.3151562 1.4861718 -2.3828125 0.99609375C -1.2033203 0.5030273 -1.2033203 0.5030273 0 0z" stroke="none" fill="#45718E" fill-rule="nonzero" />
    <path transform="matrix(1 0 0 1 298 262)"  d="M0 0C 0.99 0.33 1.98 0.66 3 1C 3.9492188 3.0664062 3.9492188 3.0664062 4.6875 5.5625C 4.938867 6.388789 5.190234 7.2150784 5.4492188 8.066406C 5.6309767 8.704493 5.8127346 9.342578 6 10C 5.34 10 4.68 10 4 10C 4 9.01 4 8.02 4 7C 3.34 7 2.68 7 2 7C 0 4 0 4 0 0z" stroke="none" fill="#426B89" fill-rule="nonzero" />
    <path transform="matrix(1 0 0 1 498 425)"  d="M0 0C -0.99 0 -1.98 0 -3 0C -3 0.66 -3 1.32 -3 2C -7.210159 2.9568543 -9.257124 3.131812 -13 1C -11.586223 0.63447195 -10.168795 0.28304505 -8.75 -0.0625C -7.961094 -0.25972655 -7.1721873 -0.4569531 -6.359375 -0.66015625C -3.896052 -1.0149727 -2.3439586 -0.76877546 0 0z" stroke="none" fill="#396887" fill-rule="nonzero" />
    <path transform="matrix(1 0 0 1 275 93)"  d="M0 0C 0.66 0.33 1.32 0.66 2 1C -0.31 3.31 -2.62 5.62 -5 8C -5.99 7.67 -6.98 7.34 -8 7C -5.36 4.69 -2.72 2.38 0 0z" stroke="none" fill="#9EB7C6" fill-rule="nonzero" />
    <path transform="matrix(1 0 0 1 398.5625 345.9375)"  d="M0 0C 1.134375 0.020625 2.26875 0.04125 3.4375 0.0625C 3.4375 0.3925 3.4375 0.7225 3.4375 1.0625C 1.7875 1.0625 0.1375 1.0625 -1.5625 1.0625C -1.5625 1.7225 -1.5625 2.3825 -1.5625 3.0625C -2.2225 3.0625 -2.8825 3.0625 -3.5625 3.0625C -3.5625 4.0525 -3.5625 5.0425 -3.5625 6.0625C -4.2225 6.0625 -4.8825 6.0625 -5.5625 6.0625C -4.488493 0.07874549 -4.488493 0.07874549 0 0z" stroke="none" fill="#80AC71" fill-rule="nonzero" />
    <path transform="matrix(1 0 0 1 294 78)"  d="M0 0C -1.4909766 3.795213 -3.7570086 5.6104274 -7 8C -7.66 7.67 -8.32 7.34 -9 7C -7.881216 5.827371 -6.7547693 4.662049 -5.625 3.5C -4.6852736 2.5254688 -4.6852736 2.5254688 -3.7265625 1.53125C -2 0 -2 0 0 0z" stroke="none" fill="#7EA0B3" fill-rule="nonzero" />
    <path transform="matrix(1 0 0 1 464 72)"  d="M0 0C 4.43459 1.3937283 6.8737836 3.6058223 10 7C 7.2906857 6.845182 5.5341597 6.518279 3.5546875 4.5976562C 2.3232036 3.102283 1.1570163 1.5537076 0 0z" stroke="none" fill="#9EB6C6" fill-rule="nonzero" />
    <path transform="matrix(1 0 0 1 426 316)"  d="M0 0C 3.9140296 1.269415 5.7907286 2.511677 8 6C 5 6 5 6 3.6132812 4.6875C 2.4088542 3.125 1.2044271 1.5625 0 0z" stroke="none" fill="#72A361" fill-rule="nonzero" />
    <path transform="matrix(1 0 0 1 211 172)"  d="M0 0C 0.6875 1.6875 0.6875 1.6875 1 4C -0.3125 6.75 -0.3125 6.75 -2 9C -2.66 9 -3.32 9 -4 9C -2.9412494 5.596873 -1.9909785 2.9864676 0 0z" stroke="none" fill="#779AAF" fill-rule="nonzero" />
    <path transform="matrix(1 0 0 1 495 97)"  d="M0 0C 3.367204 1.3933257 4.9859524 2.9789286 7 6C 3.7572849 5.4409113 2.0694258 4.586782 0 2C 0 1.34 0 0.68 0 0z" stroke="none" fill="#C0D0D9" fill-rule="nonzero" />
</g>
</svg>